<svg width="128" height="128" viewBox="0 0 128 128" fill="none" xmlns="http://www.w3.org/2000/svg">
<rect width="128" height="128" rx="64" fill="#4F46E5"/>
<path d="M25.3887 61.4139C25.3566 61.3929 25.3347 61.3758 25.3201 61.3629C25.3617 39.329 43.2364 21.48 65.28 21.48C87.3233 21.48 105.198 39.3285 105.24 61.3619C105.225 61.3758 105.201 61.3947 105.166 61.4179C105.013 61.5199 104.754 61.6163 104.446 61.644C103.775 61.7045 103.447 61.4495 103.358 61.1526C102.947 59.784 100.254 52.2917 94.2797 45.12C88.2896 37.9289 78.9434 31 65.28 31C51.6037 31 42.5921 38.0262 36.8531 45.2648C33.9873 48.8794 31.9277 52.5564 30.4941 55.459C29.7771 56.9108 29.215 58.1723 28.7897 59.131L28.7436 59.2351C28.5502 59.6711 28.39 60.0323 28.2557 60.3207C28.1028 60.649 28.0123 60.8187 27.9679 60.8853C27.5885 61.4544 26.8797 61.7032 26.163 61.6434C25.8112 61.6141 25.5405 61.5136 25.3887 61.4139ZM105.265 61.3334C105.266 61.3335 105.264 61.3363 105.26 61.3417C105.263 61.3361 105.265 61.3334 105.265 61.3334ZM25.2998 61.3429C25.2953 61.3378 25.2938 61.335 25.2942 61.335C25.2945 61.3349 25.2968 61.3375 25.2998 61.3429Z" fill="white" stroke="white" stroke-width="2" stroke-linecap="round"/>
<path d="M24.82 109.818L24.82 74.88C24.82 74.434 25.0326 74.0992 25.3974 73.856C25.7769 73.603 26.3142 73.46 26.88 73.46C27.4458 73.46 27.9831 73.603 28.3627 73.856C28.7274 74.0992 28.94 74.434 28.94 74.88V74.9L28.9416 74.9199L29.44 74.88C28.9416 74.9199 28.9416 74.92 28.9416 74.9202L28.9417 74.9208L28.9419 74.923L28.9425 74.9314L28.9452 74.9636L28.9558 75.0882C28.9653 75.1973 28.9796 75.3571 28.999 75.5614C29.0377 75.9701 29.0967 76.5569 29.1778 77.2711C29.34 78.6988 29.591 80.6388 29.9464 82.6846C30.3013 84.728 30.7624 86.8886 31.3468 88.7534C31.9238 90.5945 32.646 92.2331 33.5665 93.1535C33.8853 93.4724 34.316 93.6129 34.77 93.6497C35.2233 93.6864 35.743 93.6241 36.3027 93.4948C37.4229 93.2361 38.8044 92.6844 40.3335 91.9464C43.398 90.4673 47.1561 88.1898 50.7939 85.8199C54.4355 83.4476 57.9717 80.9728 60.5966 79.0918C61.9093 78.1511 62.9947 77.3585 63.7522 76.8009C64.1309 76.5221 64.4276 76.302 64.6299 76.1515C64.6583 76.1304 64.6848 76.1106 64.7095 76.0923L64.7842 76.1239C65.0057 76.2172 65.3307 76.3537 65.7451 76.5265C66.5739 76.872 67.7604 77.3626 69.1921 77.9433C72.055 79.1045 75.9006 80.6268 79.8276 82.0693C83.7517 83.5108 87.7692 84.8773 90.9723 85.7234C92.5714 86.1458 93.9865 86.4437 95.0936 86.5526C95.646 86.6069 96.1423 86.6164 96.556 86.5627C96.9557 86.5108 97.3569 86.3902 97.6336 86.1136C98.3427 85.4044 98.9329 84.3328 99.4208 83.174C99.913 82.0051 100.32 80.7011 100.643 79.4888C100.967 78.2749 101.209 77.1433 101.371 76.3158C101.452 75.9017 101.512 75.563 101.553 75.3273C101.573 75.2094 101.588 75.1172 101.599 75.0542L101.61 74.982L101.613 74.9631L101.614 74.958L101.614 74.9567L101.614 74.9562C101.614 74.9561 101.614 74.956 101.12 74.88L101.614 74.956L101.62 74.9182V74.88C101.62 74.434 101.833 74.0992 102.197 73.856C102.577 73.603 103.114 73.46 103.68 73.46C104.246 73.46 104.783 73.603 105.163 73.856C105.527 74.0992 105.74 74.434 105.74 74.88V86.4V96.61L65.4223 84.6407L65.2062 84.5765L65.015 84.696L24.82 109.818Z" fill="white" stroke="white" stroke-linecap="round"/>
<ellipse cx="84.48" cy="56.32" rx="6.4" ry="6.4" fill="white"/>
</svg>
